<svg width="296" height="197" viewBox="0 0 296 197" fill="none" xmlns="http://www.w3.org/2000/svg">
<path d="M7.69389 0.454541H42.7756L79.8281 90.8523H81.4048L118.457 0.454541H153.539V135H125.947V47.4272H124.83L90.011 134.343H71.2219L36.4031 47.0987H35.2862V135H7.69389V0.454541ZM169.093 0.454541H200.955L231.635 58.3984H232.949L263.629 0.454541H295.492L246.417 87.4361V135H218.168V87.4361L169.093 0.454541ZM0.829546 196V159.636H12.5661C15.1465 159.636 17.3009 160.134 19.0291 161.128C20.7692 162.11 22.0772 163.448 22.9531 165.141C23.8409 166.833 24.2848 168.739 24.2848 170.858C24.2848 172.977 23.8468 174.888 22.9709 176.593C22.0949 178.286 20.7929 179.629 19.0646 180.624C17.3364 181.606 15.188 182.097 12.6193 182.097H3.38636V179.114H12.5305C14.4363 179.114 16.0166 178.759 17.2713 178.049C18.526 177.327 19.4612 176.344 20.0767 175.102C20.7041 173.859 21.0178 172.444 21.0178 170.858C21.0178 169.272 20.7041 167.857 20.0767 166.614C19.4612 165.371 18.5201 164.395 17.2536 163.685C15.9988 162.974 14.4067 162.619 12.4773 162.619H4.14986V196H0.829546ZM61.8913 177.818C61.8913 181.606 61.2166 184.903 59.8672 187.708C58.5178 190.502 56.6593 192.668 54.2919 194.207C51.9363 195.734 49.2256 196.497 46.1598 196.497C43.094 196.497 40.3774 195.734 38.0099 194.207C35.6544 192.668 33.8018 190.502 32.4524 187.708C31.1148 184.903 30.446 181.606 30.446 177.818C30.446 174.03 31.1148 170.74 32.4524 167.946C33.8018 165.141 35.6603 162.974 38.0277 161.447C40.3951 159.909 43.1058 159.139 46.1598 159.139C49.2256 159.139 51.9363 159.909 54.2919 161.447C56.6593 162.974 58.5178 165.141 59.8672 167.946C61.2166 170.74 61.8913 174.03 61.8913 177.818ZM58.6598 177.818C58.6598 174.563 58.1153 171.775 57.0263 169.455C55.9373 167.123 54.4517 165.342 52.5696 164.111C50.6875 162.88 48.5509 162.264 46.1598 162.264C43.7805 162.264 41.6499 162.88 39.7678 164.111C37.8857 165.342 36.3942 167.117 35.2933 169.438C34.2043 171.758 33.6598 174.551 33.6598 177.818C33.6598 181.073 34.2043 183.861 35.2933 186.181C36.3823 188.501 37.8679 190.283 39.75 191.526C41.6321 192.757 43.7687 193.372 46.1598 193.372C48.5509 193.372 50.6875 192.757 52.5696 191.526C54.4635 190.295 55.955 188.519 57.044 186.199C58.133 183.867 58.6716 181.073 58.6598 177.818ZM69.9213 196V159.636H81.6578C84.2383 159.636 86.3927 160.104 88.1209 161.039C89.861 161.962 91.169 163.247 92.0449 164.892C92.9327 166.526 93.3766 168.402 93.3766 170.521C93.3766 172.639 92.9327 174.51 92.0449 176.131C91.169 177.753 89.8669 179.02 88.1387 179.931C86.4105 180.843 84.2679 181.298 81.7111 181.298H71.7147V178.262H81.6223C83.5163 178.262 85.0906 177.948 86.3453 177.321C87.6119 176.694 88.553 175.8 89.1685 174.64C89.7959 173.48 90.1096 172.107 90.1096 170.521C90.1096 168.934 89.7959 167.549 89.1685 166.366C88.5411 165.17 87.5942 164.247 86.3276 163.596C85.0729 162.945 83.4867 162.619 81.5691 162.619H73.2417V196H69.9213ZM85.9547 179.594L94.9036 196H91.0684L82.2083 179.594H85.9547ZM99.2626 162.619V159.636H125.63V162.619H114.106V196H110.786V162.619H99.2626ZM133.105 196V159.636H154.145V162.619H136.425V176.309H152.494V179.292H136.425V196H133.105ZM192.214 177.818C192.214 181.606 191.539 184.903 190.189 187.708C188.84 190.502 186.982 192.668 184.614 194.207C182.259 195.734 179.548 196.497 176.482 196.497C173.416 196.497 170.7 195.734 168.332 194.207C165.977 192.668 164.124 190.502 162.775 187.708C161.437 184.903 160.768 181.606 160.768 177.818C160.768 174.03 161.437 170.74 162.775 167.946C164.124 165.141 165.983 162.974 168.35 161.447C170.717 159.909 173.428 159.139 176.482 159.139C179.548 159.139 182.259 159.909 184.614 161.447C186.982 162.974 188.84 165.141 190.189 167.946C191.539 170.74 192.214 174.03 192.214 177.818ZM188.982 177.818C188.982 174.563 188.438 171.775 187.349 169.455C186.26 167.123 184.774 165.342 182.892 164.111C181.01 162.88 178.873 162.264 176.482 162.264C174.103 162.264 171.972 162.88 170.09 164.111C168.208 165.342 166.716 167.117 165.616 169.438C164.527 171.758 163.982 174.551 163.982 177.818C163.982 181.073 164.527 183.861 165.616 186.181C166.705 188.501 168.19 190.283 170.072 191.526C171.954 192.757 174.091 193.372 176.482 193.372C178.873 193.372 181.01 192.757 182.892 191.526C184.786 190.295 186.277 188.519 187.366 186.199C188.455 183.867 188.994 181.073 188.982 177.818ZM200.244 196V159.636H203.564V193.017H220.893V196H200.244ZM231.689 159.636V196H228.369V159.636H231.689ZM271.169 177.818C271.169 181.606 270.494 184.903 269.145 187.708C267.795 190.502 265.937 192.668 263.569 194.207C261.214 195.734 258.503 196.497 255.437 196.497C252.371 196.497 249.655 195.734 247.287 194.207C244.932 192.668 243.079 190.502 241.73 187.708C240.392 184.903 239.723 181.606 239.723 177.818C239.723 174.03 240.392 170.74 241.73 167.946C243.079 165.141 244.938 162.974 247.305 161.447C249.672 159.909 252.383 159.139 255.437 159.139C258.503 159.139 261.214 159.909 263.569 161.447C265.937 162.974 267.795 165.141 269.145 167.946C270.494 170.74 271.169 174.03 271.169 177.818ZM267.937 177.818C267.937 174.563 267.393 171.775 266.304 169.455C265.215 167.123 263.729 165.342 261.847 164.111C259.965 162.88 257.828 162.264 255.437 162.264C253.058 162.264 250.927 162.88 249.045 164.111C247.163 165.342 245.672 167.117 244.571 169.438C243.482 171.758 242.937 174.551 242.937 177.818C242.937 181.073 243.482 183.861 244.571 186.181C245.66 188.501 247.145 190.283 249.027 191.526C250.909 192.757 253.046 193.372 255.437 193.372C257.828 193.372 259.965 192.757 261.847 191.526C263.741 190.295 265.232 188.519 266.321 186.199C267.41 183.867 267.949 181.073 267.937 177.818Z" fill="#D9D9D9"/>
</svg>
