<svg width="139" height="61" viewBox="0 0 139 61" fill="none" xmlns="http://www.w3.org/2000/svg">
<path d="M9.8125 5C9.72396 4.10937 9.33073 3.40104 8.63281 2.875C7.9349 2.34896 7.05729 2.08594 6 2.08594C5.25521 2.08594 4.59896 2.21354 4.03125 2.46875C3.46875 2.72396 3.02604 3.07812 2.70313 3.53125C2.38542 3.97917 2.22656 4.48958 2.22656 5.0625C2.22656 5.48438 2.31771 5.85417 2.5 6.17188C2.68229 6.48958 2.92708 6.76302 3.23438 6.99219C3.54688 7.21615 3.89063 7.40885 4.26563 7.57031C4.64583 7.73177 5.02865 7.86719 5.41406 7.97656L7.10156 8.46094C7.61198 8.60156 8.1224 8.78125 8.63281 9C9.14323 9.21875 9.60938 9.49479 10.0313 9.82812C10.4583 10.1562 10.7995 10.5599 11.0547 11.0391C11.3151 11.513 11.4453 12.0833 11.4453 12.75C11.4453 13.6042 11.224 14.3724 10.7813 15.0547C10.3385 15.737 9.70313 16.2786 8.875 16.6797C8.04688 17.0755 7.05469 17.2734 5.89844 17.2734C4.8099 17.2734 3.86458 17.0937 3.0625 16.7344C2.26042 16.3698 1.63021 15.8672 1.17188 15.2266C0.713542 14.5859 0.455729 13.8437 0.398438 13H1.89844C1.95052 13.6302 2.15885 14.1641 2.52344 14.6016C2.88802 15.0391 3.36198 15.3724 3.94531 15.6016C4.52865 15.8255 5.17969 15.9375 5.89844 15.9375C6.69531 15.9375 7.40365 15.8047 8.02344 15.5391C8.64844 15.2682 9.13802 14.8932 9.49219 14.4141C9.85156 13.9297 10.0313 13.3672 10.0313 12.7266C10.0313 12.1849 9.89063 11.7318 9.60938 11.3672C9.32813 10.9974 8.9349 10.6875 8.42969 10.4375C7.92969 10.1875 7.34896 9.96615 6.6875 9.77344L4.77344 9.21094C3.51823 8.83594 2.54427 8.31771 1.85156 7.65625C1.15885 6.99479 0.8125 6.15104 0.8125 5.125C0.8125 4.26562 1.04167 3.51042 1.5 2.85937C1.96354 2.20312 2.58854 1.69271 3.375 1.32812C4.16667 0.958332 5.05469 0.773437 6.03906 0.773437C7.03385 0.773437 7.91406 0.955729 8.67969 1.32031C9.44531 1.6849 10.0521 2.1875 10.5 2.82812C10.9531 3.46354 11.1953 4.1875 11.2266 5H9.8125ZM16.4219 1V17H14.9609V1H16.4219ZM33.1367 1V17H31.7148L22.2617 3.60156H22.1367V17H20.6758V1H22.0898L31.5742 14.4141H31.6992V1H33.1367ZM37.3906 17V1H46.6719V2.3125H38.8516V8.33594H46.1797V9.64844H38.8516V15.6875H46.8281V17H37.3906ZM49.4844 2.3125V1H61.0859V2.3125H56.0156V17H54.5547V2.3125H49.4844ZM64.375 17V1H65.8359V8.33594H74.9141V1H76.375V17H74.9141V9.64844H65.8359V17H64.375ZM80.6172 17V1H89.8984V2.3125H82.0781V8.33594H89.4062V9.64844H82.0781V15.6875H90.0547V17H80.6172ZM93.6797 1H95.3672L101.172 14.9375H101.313L107.117 1H108.805V17H107.43V4.08594H107.305L101.906 17H100.578L95.1797 4.08594H95.0547V17H93.6797V1ZM113.059 17V1H118.457C119.499 1 120.366 1.18229 121.059 1.54687C121.757 1.91146 122.28 2.40885 122.629 3.03906C122.978 3.66927 123.152 4.38542 123.152 5.1875C123.152 5.85417 123.04 6.42448 122.816 6.89844C122.592 7.3724 122.288 7.75521 121.902 8.04687C121.517 8.33854 121.087 8.54948 120.613 8.67969V8.80469C121.129 8.84115 121.629 9.02344 122.113 9.35156C122.598 9.67448 122.996 10.1276 123.309 10.7109C123.621 11.2943 123.777 11.9922 123.777 12.8047C123.777 13.612 123.598 14.3333 123.238 14.9687C122.879 15.599 122.327 16.0964 121.582 16.4609C120.842 16.8203 119.9 17 118.754 17H113.059ZM114.52 15.6875H118.754C119.988 15.6875 120.9 15.4141 121.488 14.8672C122.082 14.3203 122.379 13.6328 122.379 12.8047C122.379 12.1953 122.23 11.6432 121.934 11.1484C121.642 10.6484 121.228 10.2526 120.691 9.96094C120.16 9.66927 119.535 9.52344 118.816 9.52344H114.52V15.6875ZM114.52 8.22656H118.59C119.22 8.22656 119.772 8.09635 120.246 7.83594C120.72 7.57552 121.09 7.21615 121.355 6.75781C121.621 6.29948 121.754 5.77604 121.754 5.1875C121.754 4.33854 121.478 3.64844 120.926 3.11719C120.374 2.58073 119.551 2.3125 118.457 2.3125H114.52V8.22656ZM127.326 17H125.795L131.615 1H133.178L138.998 17H137.467L132.451 2.89844H132.342L127.326 17ZM128.428 10.8672H136.365V12.1797H128.428V10.8672ZM0.892046 61V57.3949L13.6122 39.9574H0.90483V34.8182H21.6151V38.4233L8.89489 55.8608H21.6023V61H0.892046ZM31.7624 61L24.1431 34.8182H31.136L35.0863 51.9744H35.3036L39.8164 34.8182H45.5181L50.0309 52.0128H50.2482L54.2113 34.8182H61.1914L53.5849 61H47.4869L42.7695 45.1222H42.565L37.8477 61H31.7624ZM66.6214 61H59.8203L68.6541 34.8182H77.0788L85.9126 61H79.1115L72.9624 41.4148H72.7578L66.6214 61ZM65.7138 50.696H79.9297V55.5028H65.7138V50.696ZM111.014 34.8182V61H105.645L95.2259 45.8892H95.0597V61H88.7315V34.8182H94.1776L104.482 49.9034H104.699V34.8182H111.014ZM114.993 61V34.8182H133.249V39.9574H121.321V45.3267H132.316V50.4787H121.321V55.8608H133.249V61H114.993Z" fill="black"/>
</svg>
